<svg width="1415" height="989" viewBox="0 0 1415 989" fill="none" xmlns="http://www.w3.org/2000/svg">
<g style="mix-blend-mode:overlay">
<path fill-rule="evenodd" clip-rule="evenodd" d="M1037.71 10.5821C1037.1 28.9948 1033.8 46.1199 1028.55 58.1904C1023.29 70.2604 1016.51 76.2871 1009.68 74.9443C1002.86 73.6014 996.552 64.9991 992.155 51.03C987.758 37.0604 985.628 18.8685 986.235 0.455771C986.235 0.455771 1000.44 18.5359 1011.97 5.51892C1023.5 -7.49809 1037.71 10.5821 1037.71 10.5821ZM1044.76 59.4806C1043.13 66.5849 1041.24 72.954 1039.18 78.2334C1037.91 80.7747 1036.83 83.1804 1035.83 85.4116V85.4117C1030.61 97.1078 1027.52 104.011 1009.8 100.525C991.318 96.8876 989.169 90.3009 983.936 74.2633C983.196 71.9976 982.396 69.5433 981.478 66.882C974.069 45.383 974.317 25.2536 975.15 0L982.503 1.44662C981.317 37.4182 987.068 55.9426 987.068 55.9426C987.068 55.9426 991.98 79.9919 1010.36 83.6084C1028.74 87.225 1034.06 65.1869 1034.06 65.1869C1034.06 65.1869 1041.21 40.6835 1042.19 11.0598L1049.9 12.5762C1050.87 12.0444 1051.88 11.7964 1052.9 11.8485C1055.46 11.9799 1057.94 14.0114 1059.98 17.6413C1062.01 21.2714 1063.49 26.3064 1064.2 31.9988C1064.9 37.6913 1064.79 43.7377 1063.89 49.2405C1062.98 54.7431 1061.33 59.409 1059.17 62.5448C1057.01 65.6806 1054.46 67.1198 1051.91 66.6484C1049.35 66.1769 1046.92 63.8196 1044.98 59.9272C1044.9 59.7802 1044.83 59.6313 1044.76 59.4806ZM1049.64 28.0013C1050.58 26.6303 1051.69 25.926 1052.82 25.9838C1054.06 26.0476 1055.26 27.0325 1056.25 28.7926C1057.24 30.5527 1057.96 32.994 1058.3 35.7541C1058.64 38.5142 1058.59 41.4459 1058.15 44.1141C1057.71 46.7822 1056.9 49.0444 1055.86 50.5648C1054.81 52.0856 1053.58 52.7832 1052.34 52.5547C1051.1 52.3261 1049.92 51.1832 1048.98 49.2958C1048.37 48.0817 1047.88 46.6013 1047.54 44.9544C1048.4 39.5058 1049.11 33.8161 1049.64 28.0013ZM975.788 106.611L1042.9 119.815C1044.17 120.063 1045.1 123.107 1044.98 126.613C1044.87 130.119 1043.75 132.759 1042.48 132.511L975.37 119.306C974.106 119.058 973.175 116.014 973.291 112.508C973.407 109.002 974.525 106.362 975.788 106.611ZM635.687 183.399C636.644 192.12 636.277 201.325 634.667 208.988C633.058 216.651 630.337 222.145 627.105 224.261C623.872 226.378 620.391 224.943 617.429 220.272C614.467 215.602 612.265 208.078 611.309 199.357C611.309 199.357 619.063 201.991 623.498 191.378C627.933 180.765 635.687 183.399 635.687 183.399ZM642.217 203.088C641.946 207.01 641.504 210.699 640.906 213.959C640.492 215.638 640.158 217.176 639.849 218.603L639.849 218.603V218.603C638.228 226.083 637.271 230.497 628.878 235.99C620.122 241.722 618.69 239.551 615.204 234.263L615.204 234.263C614.712 233.516 614.178 232.706 613.577 231.849C608.723 224.918 607.486 215.55 606.174 203.589L609.656 201.309C611.525 218.347 615.417 224.572 615.417 224.572C615.417 224.572 619.293 233.677 628 227.978C636.706 222.279 637.672 210.004 637.672 210.004C637.672 210.004 639.323 195.854 637.784 181.822L641.434 179.433C641.848 178.797 642.295 178.279 642.767 177.896C643.955 176.93 645.235 176.87 646.417 177.726C647.598 178.581 648.617 180.307 649.324 182.646C650.03 184.985 650.385 187.812 650.337 190.709C650.289 193.606 649.841 196.418 649.057 198.726C648.274 201.035 647.198 202.718 645.989 203.525C644.781 204.332 643.503 204.22 642.348 203.206C642.304 203.168 642.26 203.129 642.217 203.088ZM642.351 186.639C642.695 185.628 643.156 184.861 643.68 184.436C644.256 183.967 644.877 183.938 645.449 184.353C646.022 184.768 646.516 185.605 646.859 186.739C647.201 187.873 647.374 189.244 647.35 190.649C647.327 192.053 647.109 193.416 646.73 194.536C646.35 195.655 645.828 196.471 645.242 196.862C644.656 197.254 644.037 197.2 643.476 196.708C643.116 196.392 642.792 195.906 642.523 195.285C642.554 192.431 642.498 189.528 642.351 186.639ZM613.624 252.421L645.413 231.612C646.011 231.22 646.644 232.249 646.826 233.909C647.008 235.57 646.671 237.234 646.072 237.625L614.284 258.434C613.685 258.826 613.052 257.798 612.87 256.137C612.688 254.477 613.026 252.813 613.624 252.421ZM222.999 369.075C224.74 384.947 224.072 401.699 221.143 415.645C218.213 429.592 213.262 439.591 207.379 443.442C201.495 447.293 195.161 444.682 189.77 436.182C184.379 427.682 180.372 413.99 178.631 398.118C178.631 398.118 192.743 402.911 200.815 383.596C208.886 364.282 222.999 369.075 222.999 369.075ZM234.883 404.908C234.39 412.045 233.585 418.76 232.496 424.693C231.742 427.748 231.135 430.548 230.573 433.144L230.572 433.145C227.622 446.756 225.88 454.79 210.607 464.788C194.671 475.22 192.065 471.267 185.721 461.644L185.721 461.644C184.825 460.284 183.854 458.812 182.76 457.25C173.925 444.637 171.673 427.588 169.286 405.819L175.624 401.67C179.025 432.678 186.108 444.007 186.108 444.007C186.108 444.007 193.162 460.579 209.007 450.206C224.853 439.833 226.611 417.494 226.611 417.494C226.611 417.494 229.615 391.742 226.815 366.206L233.458 361.857C234.21 360.7 235.024 359.758 235.883 359.06C238.046 357.302 240.376 357.193 242.525 358.75C244.675 360.307 246.53 363.448 247.816 367.704C249.101 371.961 249.748 377.107 249.661 382.38C249.574 387.652 248.757 392.768 247.331 396.97C245.905 401.171 243.947 404.234 241.748 405.703C239.548 407.172 237.224 406.968 235.12 405.123C235.04 405.054 234.961 404.982 234.883 404.908ZM235.126 374.971C235.752 373.132 236.592 371.736 237.544 370.962C238.593 370.11 239.722 370.057 240.765 370.812C241.807 371.567 242.707 373.089 243.33 375.153C243.953 377.217 244.267 379.713 244.225 382.269C244.182 384.825 243.786 387.306 243.095 389.343C242.404 391.381 241.454 392.866 240.388 393.578C239.321 394.29 238.194 394.192 237.174 393.297C236.518 392.721 235.929 391.836 235.44 390.706C235.495 385.513 235.394 380.229 235.126 374.971ZM182.845 494.691L240.699 456.82C241.788 456.107 242.94 457.979 243.271 461.001C243.602 464.023 242.988 467.051 241.899 467.764L184.046 505.635C182.956 506.348 181.805 504.476 181.473 501.454C181.142 498.432 181.756 495.404 182.845 494.691ZM95.859 941.215C95.0866 957.538 91.9422 972.514 87.1176 982.848C82.2929 993.182 76.1831 998.028 70.1323 996.319C64.0816 994.61 58.5855 986.487 54.8531 973.736C51.1207 960.986 49.4578 944.652 50.2301 928.329C50.2301 928.329 62.6299 945.474 73.0445 934.772C83.4592 924.07 95.859 941.215 95.859 941.215ZM101.511 985.218C99.9773 991.411 98.2171 996.931 96.3107 1001.47C95.1502 1003.63 94.1642 1005.69 93.2496 1007.6L93.2495 1007.6L93.2495 1007.6C88.4554 1017.6 85.6259 1023.51 69.9182 1019.07C53.5293 1014.44 51.7019 1008.42 47.2525 993.771L47.2525 993.771C46.6239 991.701 45.943 989.458 45.1613 987.023C38.8464 967.352 39.3213 949.475 40.3806 927.088L46.899 928.928C45.3901 960.818 50.2691 977.72 50.2691 977.72C50.2691 977.72 54.3318 999.471 70.6278 1004.07C86.9238 1008.67 91.9237 989.483 91.9237 989.483C91.9237 989.483 98.5966 968.24 99.8392 941.978L106.672 943.908C107.545 943.508 108.444 943.364 109.347 943.487C111.624 943.797 113.806 945.79 115.57 949.171C117.335 952.552 118.587 957.14 119.141 962.253C119.695 967.367 119.521 972.734 118.646 977.558C117.77 982.381 116.24 986.404 114.281 989.029C112.323 991.654 110.041 992.741 107.774 992.13C105.508 991.518 103.377 989.238 101.699 985.632C101.636 985.495 101.573 985.357 101.511 985.218ZM106.247 957.601C107.106 956.454 108.097 955.911 109.099 956.047C110.203 956.198 111.261 957.164 112.117 958.804C112.972 960.443 113.579 962.667 113.848 965.147C114.116 967.626 114.032 970.229 113.608 972.567C113.183 974.906 112.441 976.857 111.492 978.129C110.542 979.402 109.435 979.929 108.336 979.633C107.237 979.336 106.204 978.231 105.391 976.482C104.867 975.357 104.453 974.004 104.168 972.514C105.002 967.735 105.704 962.731 106.247 957.601ZM39.6006 1021.91L99.0984 1038.72C100.219 1039.03 101.008 1041.81 100.86 1044.92C100.713 1048.02 99.6861 1050.29 98.5658 1049.97L39.068 1033.17C37.9478 1032.85 37.1589 1030.08 37.306 1026.97C37.453 1023.86 38.4804 1021.6 39.6006 1021.91ZM58.5706 20.5107C57.7983 36.8339 54.6539 51.8096 49.8292 62.1438C45.0046 72.4776 38.8947 77.3232 32.844 75.6145C26.7933 73.9058 21.2971 65.7825 17.5647 53.0322C13.8324 40.2815 12.1694 23.9481 12.9418 7.62492C12.9418 7.62492 25.3416 24.77 35.7562 14.0678C46.1709 3.36557 58.5706 20.5107 58.5706 20.5107ZM64.2228 64.5138C62.689 70.707 60.9287 76.2266 59.0224 80.7639C57.8619 82.9272 56.8759 84.9847 55.9613 86.8929L55.9612 86.8932L55.9612 86.8933C51.1671 96.8968 48.3376 102.801 32.6299 98.365C16.241 93.7367 14.4136 87.7189 9.9642 73.0666L9.96416 73.0664C9.33558 70.9965 8.65467 68.7542 7.87298 66.3191C1.55806 46.6474 2.03296 28.771 3.09228 6.3833L9.61069 8.22413C8.10178 40.1135 12.9808 57.0157 12.9808 57.0157C12.9808 57.0157 17.0435 78.7663 33.3395 83.3683C49.6355 87.9704 54.6354 68.7792 54.6354 68.7792C54.6354 68.7792 61.3082 47.5356 62.5509 21.2737L69.3834 23.2033C70.2571 22.8041 71.156 22.6596 72.0591 22.7827C74.3355 23.0928 76.5178 25.0862 78.282 28.4669C80.0464 31.8477 81.2984 36.4355 81.8524 41.5492C82.4064 46.6629 82.2329 52.03 81.3575 56.8536C80.482 61.6771 78.9514 65.7002 76.993 68.3251C75.0345 70.9499 72.7525 72.0372 70.4859 71.4252C68.2193 70.8133 66.0887 68.5342 64.4106 64.9272C64.3473 64.791 64.2847 64.6532 64.2228 64.5138ZM68.9584 36.8967C69.8176 35.7494 70.8088 35.2066 71.8109 35.3431C72.9147 35.4935 73.9727 36.4601 74.8282 38.0993C75.6836 39.7385 76.2908 41.963 76.5594 44.4425C76.828 46.922 76.7438 49.5243 76.3194 51.8631C75.8948 54.2019 75.1527 56.1525 74.2032 57.4251C73.2536 58.6982 72.1471 59.2252 71.0481 58.9285C69.949 58.6318 68.916 57.5268 68.1024 55.7779C67.5789 54.6528 67.1642 53.2999 66.8801 51.8099C67.7138 47.031 68.4153 42.0263 68.9584 36.8967ZM2.31225 101.209L61.8101 118.011C62.9303 118.327 63.7192 121.103 63.5721 124.211C63.4251 127.319 62.3977 129.582 61.2775 129.266L1.77969 112.464C0.659474 112.147 -0.129426 109.371 0.0176349 106.263C0.164696 103.155 1.19203 100.892 2.31225 101.209ZM1399.34 510.596C1397.01 522.079 1393.08 531.04 1388.42 535.509C1383.76 539.976 1378.75 539.585 1374.49 534.42C1370.23 529.255 1367.08 519.74 1365.72 507.968C1364.36 496.196 1364.91 483.131 1367.24 471.648C1367.24 471.648 1374.49 492.247 1383.29 491.122C1392.09 489.996 1399.34 510.596 1399.34 510.596ZM1398.73 546.55C1396.93 550.106 1395.04 553.02 1393.15 555.118C1392.06 555.956 1391.12 556.83 1390.24 557.639V557.639C1385.63 561.885 1382.92 564.39 1371.87 550.982C1360.34 536.993 1359.65 531.394 1357.97 517.763V517.763V517.763C1357.73 515.837 1357.47 513.751 1357.16 511.458C1354.66 492.937 1356.94 480.121 1360.15 464.371L1364.73 469.935C1360.17 492.369 1361.92 507.93 1361.92 507.93C1361.92 507.93 1362.55 526.522 1374.01 540.432C1385.48 554.342 1391.23 543.485 1391.23 543.485C1391.23 543.485 1398.42 532.204 1402.18 513.728L1406.99 519.56C1407.67 519.832 1408.35 520.307 1409 520.981C1410.63 522.68 1412.02 525.554 1412.95 529.175C1413.88 532.797 1414.3 536.974 1414.15 541.086C1414.01 545.198 1413.3 549.026 1412.13 552.001C1410.97 554.976 1409.41 556.94 1407.69 557.601C1405.96 558.262 1404.17 557.586 1402.57 555.672C1400.98 553.758 1399.66 550.708 1398.82 546.975C1398.79 546.834 1398.76 546.693 1398.73 546.55ZM1405.19 529.338C1405.95 529.051 1406.73 529.293 1407.45 530.041C1408.25 530.865 1408.92 532.258 1409.37 534.014C1409.82 535.77 1410.03 537.796 1409.95 539.789C1409.88 541.783 1409.54 543.639 1408.97 545.082C1408.41 546.524 1407.65 547.476 1406.82 547.797C1405.98 548.118 1405.11 547.789 1404.34 546.862C1403.57 545.933 1402.93 544.455 1402.52 542.645C1402.26 541.481 1402.1 540.22 1402.05 538.942C1403.18 535.973 1404.24 532.752 1405.19 529.338ZM1349.3 533.476L1391.16 584.262C1391.95 585.219 1392.23 587.766 1391.78 589.953C1391.34 592.139 1390.34 593.136 1389.55 592.18L1347.69 541.394C1346.91 540.438 1346.63 537.89 1347.07 535.704C1347.52 533.517 1348.52 532.52 1349.3 533.476ZM1278.42 183.229C1279.35 195.848 1278.38 208.767 1275.73 219.145C1273.08 229.522 1268.96 236.508 1264.29 238.565C1259.61 240.622 1254.75 237.583 1250.79 230.115C1246.82 222.646 1244.07 211.362 1243.14 198.743C1243.14 198.743 1253.99 204.718 1260.78 190.986C1267.57 177.254 1278.42 183.229 1278.42 183.229ZM1286.7 212.985C1286.13 218.456 1285.32 223.549 1284.32 227.989C1283.65 230.244 1283.1 232.325 1282.6 234.254C1279.94 244.368 1278.37 250.337 1266.23 255.678C1253.56 261.25 1251.64 257.761 1246.96 249.268L1246.96 249.268C1246.3 248.068 1245.58 246.768 1244.77 245.379C1238.24 234.164 1236.95 220.549 1235.67 203.242L1240.71 201.026C1242.53 225.678 1247.73 235.616 1247.73 235.616C1247.73 235.616 1252.77 249.625 1265.37 244.084C1277.97 238.544 1279.93 221.453 1279.93 221.453C1279.93 221.453 1282.96 201.908 1281.46 181.606L1286.74 179.283C1287.36 178.504 1288.02 177.901 1288.7 177.495C1290.43 176.472 1292.25 176.759 1293.88 178.313C1295.51 179.866 1296.86 182.603 1297.75 186.118C1298.64 189.632 1299 193.737 1298.79 197.823C1298.58 201.908 1297.81 205.757 1296.59 208.796C1295.37 211.836 1293.77 213.906 1292.02 214.697C1290.27 215.489 1288.47 214.96 1286.88 213.19C1286.82 213.124 1286.76 213.055 1286.7 212.985ZM1287.69 189.746C1288.22 188.416 1288.91 187.464 1289.68 187.014C1290.51 186.518 1291.39 186.658 1292.18 187.411C1292.97 188.164 1293.63 189.491 1294.06 191.195C1294.49 192.899 1294.67 194.89 1294.57 196.871C1294.47 198.851 1294.09 200.717 1293.5 202.191C1292.91 203.665 1292.13 204.669 1291.28 205.052C1290.44 205.436 1289.56 205.18 1288.79 204.322C1288.3 203.77 1287.86 202.988 1287.51 202.031C1287.69 198.002 1287.76 193.877 1287.69 189.746ZM1243.84 274.505L1289.84 254.276C1290.7 253.895 1291.55 255.534 1291.73 257.937C1291.9 260.34 1291.34 262.596 1290.48 262.977L1244.48 283.206C1243.62 283.587 1242.77 281.948 1242.59 279.545C1242.42 277.143 1242.98 274.886 1243.84 274.505ZM910.864 597.833C909.481 616.344 905.429 632.881 899.598 643.807C893.768 654.732 886.638 659.151 879.776 656.091C872.915 653.031 866.883 642.742 863.009 627.49C859.136 612.236 857.736 593.268 859.119 574.757C859.119 574.757 872.763 596.618 884.992 586.295C897.221 575.972 910.864 597.833 910.864 597.833ZM915.973 649.15C914.031 655.946 911.85 661.931 909.532 666.767C908.14 669.026 906.95 671.197 905.847 673.21L905.846 673.21L905.846 673.211C900.061 683.764 896.647 689.993 878.834 682.049C860.248 673.76 858.345 666.549 853.71 648.991C853.055 646.511 852.346 643.824 851.527 640.898C844.915 617.264 846.005 596.923 847.903 571.535L855.295 574.832C852.592 610.995 857.649 631.202 857.649 631.202C857.649 631.202 861.625 656.8 880.105 665.042C898.585 673.284 904.887 652.269 904.887 652.269C904.887 652.269 913.163 629.216 915.389 599.434L923.137 602.889C924.148 602.593 925.179 602.593 926.208 602.898C928.799 603.67 931.232 606.347 933.144 610.533C935.057 614.719 936.347 620.191 936.823 626.135C937.299 632.08 936.936 638.181 935.788 643.533C934.64 648.885 932.767 653.202 930.449 655.843C928.13 658.484 925.489 659.308 922.918 658.194C920.347 657.08 917.982 654.086 916.175 649.657C916.107 649.49 916.04 649.321 915.973 649.15ZM922.232 618.459C923.249 617.305 924.398 616.866 925.539 617.206C926.795 617.58 927.975 618.878 928.902 620.908C929.829 622.937 930.455 625.59 930.686 628.473C930.917 631.355 930.741 634.313 930.184 636.908C929.627 639.503 928.719 641.596 927.595 642.877C926.471 644.158 925.19 644.557 923.944 644.017C922.697 643.477 921.55 642.025 920.674 639.878C920.111 638.496 919.678 636.874 919.399 635.12C920.498 629.812 921.454 624.221 922.232 618.459ZM844.103 679.749L911.575 709.839C912.846 710.406 913.662 713.722 913.399 717.247C913.135 720.772 911.892 723.169 910.622 722.603L843.149 692.512C841.879 691.946 841.063 688.629 841.326 685.104C841.589 681.58 842.833 679.182 844.103 679.749Z" fill="#2F2105"/>
</g>
</svg>
